<svg xmlns="http://www.w3.org/2000/svg" version="1.1" xmlns:xlink="http://www.w3.org/1999/xlink" xmlns:svgjs="http://svgjs.com/svgjs" width="595.3" height="595.3"><svg version="1.1" id="SvgjsSvg1000" xmlns="http://www.w3.org/2000/svg" xmlns:xlink="http://www.w3.org/1999/xlink" x="0px" y="0px" viewBox="0 0 595.3 595.3" style="enable-background:new 0 0 595.3 595.3;" xml:space="preserve">
<style type="text/css">
	.st0{fill:#252525;}
	.st1{fill:#EDE9DA;}
</style>
<rect x="-0.6" class="st0" width="595.9" height="595.6"></rect>
<path class="st1" d="M288,77.2c-1.5-0.1-3.1,0-4.6,0c-29.9,0-59.7,0-89.6,0c-11,0-10.2-0.7-10.2,10c0,70.2,0,140.2,0,210.4
	c0,69.4,0,139,0,208.4c0,2.2,0,4.5,0,6.6c0.1,5.4,0.4,5.9,5.6,5.9c15.5,0.1,30.9,0.1,46.5,0c5.4,0,5.5-0.2,6.2-5.5
	c2.7-22.4,5.4-44.7,8-67.2c3.7-31.4,7.4-62.8,11.1-94.2c3.7-32,7.6-64.1,11.5-96.2c3.7-31.8,7.6-63.7,11.3-95.5
	c3-25.7,6.1-51.3,9-77C293.3,77.7,293,77.3,288,77.2z M410.4,155.7c-0.5-10.8-2-21.6-4.9-32c-6.2-22.9-21.3-36.6-44.1-42.1
	c-6.4-1.5-7-1.2-7.7,5c-3.7,29.7-7.4,59.3-11,88.9c-4.1,33.8-8.3,67.5-12.5,101.4c-4.2,34-8.5,68-12.7,102.1
	c-3.9,30.8-7.6,61.4-11.5,92.2c-1.7,14.1-3.5,28-5.1,42.1c-0.5,4.5-0.1,5,4.5,5.1c5.1,0.1,10.2,0,15.2,0.1c13.6,0,26.9-0.9,40.1-4
	c24.7-5.9,39.8-21.1,45.5-45.6c3.4-14.6,4.4-29.3,4.4-44.1c0-42,0-84.1,0-126.1c0-24.3,0.1-48.7,0-73
	C410.7,202.1,411.3,178.9,410.4,155.7z"></path>
</svg><style>@media (prefers-color-scheme: light) { :root { filter: none; } }
</style></svg>